<svg xmlns="http://www.w3.org/2000/svg" version="1.1" xmlns:xlink="http://www.w3.org/1999/xlink" width="141" height="50"><svg width="141" height="50" viewBox="0 0 141 50" fill="none" xmlns="http://www.w3.org/2000/svg">
<g clip-path="url(#clip0_12_71)">
<path fill-rule="evenodd" clip-rule="evenodd" d="M23.7295 26.2628C26.7669 26.2628 29.6803 27.4715 31.8283 29.623C33.9759 31.7744 35.1828 34.6922 35.1828 37.7345V45.6168C35.1828 46.5475 34.8137 47.4398 34.1569 48.0981C33.4996 48.756 32.6088 49.1257 31.6796 49.1257C24.9404 49.1257 10.2422 49.1257 3.50301 49.1257C2.57416 49.1257 1.68293 48.756 1.02607 48.0981C0.36921 47.4398 0.000106812 46.5475 0.000106812 45.6168C0.000106812 43.4214 0.000106812 40.4581 0.000106812 37.5116C0.000106812 31.2992 5.02815 26.2628 11.2305 26.2628C15.2222 26.2628 19.7192 26.2628 23.7295 26.2628Z" fill="#009704"></path>
<path fill-rule="evenodd" clip-rule="evenodd" d="M73.1907 24.1904C76.2283 24.1904 79.1414 22.9817 81.2893 20.8301C83.4372 18.6788 84.644 15.7609 84.644 12.7185C84.644 12.1683 84.644 11.6404 84.644 11.1469C84.644 9.20902 83.0754 7.63792 81.1407 7.63792C76.0116 7.63792 66.5118 7.63792 61.3826 7.63792C59.4479 7.63792 57.8796 9.20902 57.8796 11.1469C57.8796 11.7068 57.8796 12.3107 57.8796 12.9417C57.8796 15.9249 59.0627 18.7859 61.1689 20.8957C63.2751 23.0051 66.1315 24.1904 69.11 24.1904C70.4591 24.1904 71.8382 24.1904 73.1907 24.1904Z" fill="#029A92"></path>
<path fill-rule="evenodd" clip-rule="evenodd" d="M91.5906 8.59229C95.4272 8.59229 98.5373 5.47702 98.5373 1.63431C98.5373 8.59229 98.5373 5.2365 98.5373 2.71924C98.5373 1.9981 98.2512 1.30638 97.742 0.796485C97.233 0.286449 96.5425 -1.62125e-05 95.8223 -1.62125e-05C92.7447 -1.62125e-05 87.8769 -1.62125e-05 85.7264 -1.62125e-05C85.1285 -1.62125e-05 84.644 0.485365 84.644 1.08421C84.644 1.25315 84.644 1.43764 84.644 1.63431C84.644 5.47702 87.7541 8.59229 91.5906 8.59229Z" fill="#02609A"></path>
<path fill-rule="evenodd" clip-rule="evenodd" d="M29.5436 26.4387C32.581 26.4387 35.4944 25.2298 37.6424 23.0787C39.79 20.9272 40.9969 18.0095 40.9969 14.9669V3.88212C40.9969 1.94436 39.4284 0.373339 37.4937 0.373339C30.7545 0.373339 16.0563 0.373339 9.31711 0.373339C7.38236 0.373339 5.81421 1.94436 5.81421 3.88212C5.81421 6.79726 5.81421 11.1122 5.81421 15.19C5.81421 18.1731 6.99713 21.0343 9.10353 23.1441C11.2096 25.2536 14.066 26.4387 17.0446 26.4387H29.5436Z" fill="#168418"></path>
<path fill-rule="evenodd" clip-rule="evenodd" d="M44.5919 11.8452C44.5919 5.50932 49.72 0.373299 56.0452 0.373299H63.9148C65.8495 0.373299 67.4181 1.94428 67.4181 3.88205C67.4181 12.6952 67.4181 35.685 67.4181 44.4981C67.4181 46.4359 65.8495 48.0069 63.9148 48.0069C61.7229 48.0069 58.7644 48.0069 55.8226 48.0069C49.6202 48.0069 44.5919 42.9708 44.5919 36.7582C44.5919 29.2482 44.5919 19.4012 44.5919 11.8452Z" fill="#029A92"></path>
<path fill-rule="evenodd" clip-rule="evenodd" d="M128.962 7.63779C135.288 7.63779 140.416 12.7741 140.416 19.1095V26.9918C140.416 28.9297 138.847 30.5008 136.913 30.5008C128.114 30.5008 105.161 30.5008 96.3621 30.5008C94.4274 30.5008 92.859 28.9297 92.859 26.9918C92.859 24.7964 92.859 21.8331 92.859 18.8866C92.859 12.6742 97.8869 7.63779 104.089 7.63779C111.587 7.63779 121.418 7.63779 128.962 7.63779Z" fill="#FF9E12"></path>
<path fill-rule="evenodd" clip-rule="evenodd" d="M123.89 36.283C123.89 39.3256 125.097 42.2435 127.245 44.3948C129.393 46.5462 132.306 47.755 135.344 47.755C135.893 47.755 136.42 47.755 136.913 47.755C138.847 47.755 140.416 46.1839 140.416 44.246C140.416 39.1086 140.416 29.5933 140.416 24.4559C140.416 22.518 138.847 20.9471 136.913 20.9471C136.354 20.9471 135.751 20.9471 135.121 20.9471C132.142 20.9471 129.286 22.1322 127.18 24.2418C125.074 26.3514 123.89 29.2124 123.89 32.1957C123.89 33.5471 123.89 34.9284 123.89 36.283Z" fill="#A76A12"></path>
<path fill-rule="evenodd" clip-rule="evenodd" d="M73.4832 23.3073C79.6471 23.3073 84.644 28.3123 84.644 34.4863C84.644 34.4867 84.644 34.4874 84.644 34.4874C84.644 36.2586 83.2104 37.6945 81.4422 37.6945C76.3308 37.6945 66.3774 37.6945 61.1951 37.6945C59.364 37.6945 57.8796 36.2077 57.8796 34.3734C57.8796 34.373 57.8796 34.3727 57.8796 34.3723C57.8796 28.2614 62.8255 23.3073 68.9265 23.3073C70.4313 23.3073 71.9765 23.3073 73.4832 23.3073Z" fill="#047872"></path>
<path fill-rule="evenodd" clip-rule="evenodd" d="M73.4832 23.3073C79.6471 23.3073 84.644 28.3123 84.644 34.4863C84.644 34.4867 84.644 34.4874 84.644 34.4874C84.644 36.2586 83.2104 37.6945 81.4422 37.6945C76.3308 37.6945 66.3774 37.6945 61.1951 37.6945C59.364 37.6945 57.8796 36.2077 57.8796 34.3734C57.8796 34.373 57.8796 34.3727 57.8796 34.3723C57.8796 28.2614 62.8255 23.3073 68.9265 23.3073C70.4313 23.3073 71.9765 23.3073 73.4832 23.3073Z" fill="#047872" fill-opacity="0.25"></path>
</g>
<defs>
<clipPath id="SvgjsClipPath1024">
<rect width="141" height="50" fill="white"></rect>
</clipPath>
</defs>
</svg><style>@media (prefers-color-scheme: light) { :root { filter: none; } }
@media (prefers-color-scheme: dark) { :root { filter: none; } }
</style></svg>