<?xml version="1.0" encoding="UTF-8" standalone="no"?><!DOCTYPE svg PUBLIC "-//W3C//DTD SVG 1.1//EN" "http://www.w3.org/Graphics/SVG/1.1/DTD/svg11.dtd"><svg width="100%" height="100%" viewBox="0 0 1630 1630" version="1.1" xmlns="http://www.w3.org/2000/svg" xmlns:xlink="http://www.w3.org/1999/xlink" xml:space="preserve" xmlns:serif="http://www.serif.com/" style="fill-rule:evenodd;clip-rule:evenodd;stroke-miterlimit:1.5;"><rect id="Artboard1" x="0" y="0" width="1629.42" height="1629.39" style="fill:none;"/><g><g><path d="M814.711,1092.2l69.102,69.102" style="fill:url(#_Linear1);stroke:url(#_Linear2);stroke-width:20.66px;"/><path d="M743.876,1162.9l69.102,69.102" style="fill:none;stroke:url(#_Linear3);stroke-width:20.66px;"/><path d="M743.597,1163.4l69.102,-69.102" style="fill:none;stroke:url(#_Linear4);stroke-width:20.66px;"/><path d="M814.711,1232.5l69.102,-69.102" style="fill:none;stroke:url(#_Linear5);stroke-width:20.66px;"/></g><path d="M814.711,1104.47c0,-0 84.842,-87.58 192.372,-198.579c74.834,-77.249 96.199,-191.769 54.254,-290.804c-41.946,-99.035 -139.065,-163.372 -246.617,-163.372l-0.018,-0c-107.552,-0 -204.671,64.337 -246.617,163.372c-41.945,99.035 -20.58,213.555 54.254,290.804c107.53,110.999 192.372,198.579 192.372,198.579Z" style="fill:#68b92e;"/><path d="M814.711,1159.3c0,-0 99.094,-102.291 224.687,-231.937c87.405,-90.225 112.359,-223.983 63.367,-339.655c-48.992,-115.672 -162.426,-190.817 -288.045,-190.817c-0.006,0 -0.012,0 -0.017,0c-125.62,0 -239.054,75.145 -288.046,190.817c-48.992,115.672 -24.038,249.43 63.367,339.655c125.594,129.646 224.687,231.937 224.687,231.937Z" style="fill:none;stroke:#68b92e;stroke-width:20.66px;stroke-linecap:square;"/></g><path d="M637.224,926.815c-5.134,0.622 -8.866,1.023 -9.72,-2.403c-1.539,-6.157 -1.539,-10.005 -5.387,-6.157c-3.838,3.848 -10.764,11.533 -12.303,5.376c-1.539,-6.146 -0,-3.837 -2.298,-13.062c-2.32,-9.234 -6.927,-8.465 -5.387,-16.92c1.539,-8.465 -3.079,-8.465 -0,-17.69c3.067,-9.235 13.841,-5.387 3.067,-9.235c-10.763,-3.837 -18.449,-6.916 -14.601,-9.994c3.838,-3.068 12.303,-6.916 12.303,-13.842c0,-6.916 3.838,-4.607 -0.769,-12.303c-4.618,-7.685 -3.079,-8.455 -7.696,-12.303c-4.607,-3.837 -5.377,-13.072 -10.764,-6.915c-5.377,6.146 -6.916,8.455 -10.764,10.763c-3.848,2.309 -6.156,-5.387 -4.617,-10.004c1.539,-4.608 10.763,0.78 1.539,-4.608c-9.225,-5.386 -11.533,-7.695 -6.916,-10.763c4.607,-3.078 10.764,-5.387 1.539,-8.466c-9.235,-3.067 -14.622,0.77 -13.842,-9.994c0.759,-10.763 -1.539,-9.994 3.068,-16.15c4.618,-6.147 6.157,-9.225 4.618,-11.534c-1.539,-2.309 7.685,-12.303 -0,-11.533c-7.686,0.77 -15.382,0.77 -15.382,-9.225c0,-10.004 -0.769,-5.387 0,-17.689c0.77,-12.314 -2.308,-6.927 1.54,-17.69c3.837,-10.764 -0,-24.606 8.455,-29.224c8.465,-4.617 10.004,-9.224 10.004,-17.69c0,-8.455 6.146,-15.381 11.533,-5.376c0,-0 -2.308,18.449 5.377,25.375c7.696,6.916 5.387,2.309 14.612,14.612c9.235,12.303 -1.54,16.15 10.004,19.999c11.533,3.837 23.067,3.837 30.763,-0c7.685,-3.849 7.685,-8.466 17.679,-5.388c10.005,3.068 3.079,-0.769 19.229,3.068c16.151,3.848 16.151,0.78 24.606,-3.068c8.455,-3.848 2.309,-13.842 10.764,-20.768c8.465,-6.916 12.302,-9.225 24.605,-13.072c12.303,-3.848 10.005,2.308 16.921,8.465c6.926,6.146 3.848,9.225 14.611,11.533c10.775,2.309 17.69,6.147 23.836,2.309c6.157,-3.848 1.54,-13.083 19.23,-14.622l0.98,-0.074c16.942,-1.455 23.615,-1.602 22.856,-9.151c-0.759,-7.685 -2.298,-9.994 7.696,-14.611c9.994,-4.607 6.146,-12.303 14.611,-21.528c8.455,-9.224 -7.685,-25.385 5.377,-33.071c13.083,-7.685 15.381,-3.078 18.459,-13.842c3.079,-10.764 -0.769,-7.696 5.388,-16.92c6.146,-9.225 -3.079,-9.994 1.539,-19.988c4.607,-10.005 2.298,-13.842 2.298,-20.769c-0,-6.915 8.465,-6.146 17.69,-5.376c9.235,0.769 6.157,-10.005 17.69,-6.926c11.533,3.078 12.303,0.769 23.836,0.769c11.533,0 46.143,4.618 40.757,7.696c-5.377,3.078 -17.68,4.618 -11.534,9.994c6.157,5.387 -0.769,6.146 9.994,9.224c10.774,3.079 16.151,0 10.774,7.696c-5.387,7.686 -7.695,3.848 -15.381,5.387c-7.696,1.529 -21.538,-3.078 -16.151,1.529c5.377,4.618 16.151,0 16.921,4.618c0.769,4.607 -10.764,3.078 -3.848,6.915c6.926,3.848 10.764,-3.068 6.926,3.848c-3.848,6.927 -10.004,0.77 -11.544,6.147c-1.539,5.386 5.388,-0.759 7.696,7.696c2.309,8.465 1.539,10.763 6.927,16.15c5.376,5.377 -3.079,3.838 6.146,13.073c9.224,9.224 20.757,9.994 17.69,16.15c-3.079,6.147 -15.382,1.54 -15.382,11.534c0,9.994 -2.308,9.994 5.377,16.92c7.696,6.916 6.157,6.916 16.151,13.072c9.994,6.157 6.157,9.225 13.842,12.304c7.696,3.078 7.696,7.695 13.842,13.072c6.157,5.387 18.46,3.848 8.455,9.224c-9.994,5.387 -3.838,13.083 -16.91,6.926c-13.072,-6.145 -12.313,0 -20.768,-3.078c-8.455,-3.067 -11.534,-7.685 -13.073,-2.309c-1.539,5.387 -3.848,-10.763 -9.224,2.309c-5.387,13.073 -10.764,16.151 -13.842,26.145c-3.079,10.005 -8.466,12.314 -3.079,18.46c5.387,6.156 -6.926,12.303 -1.539,18.459c5.387,6.146 3.079,4.607 7.696,14.612c4.618,9.994 10.764,10.764 0.77,16.151c-9.995,5.376 -10.775,5.376 -16.151,6.915c-5.387,1.539 -6.926,4.618 -11.544,11.534c-4.607,6.926 1.539,11.533 -4.607,6.926c-6.157,-4.617 -0,-8.466 -6.157,-4.617c-6.146,3.847 0.77,3.078 -4.607,8.465c-5.387,5.376 -1.539,4.607 -11.533,12.292c-10.005,7.696 -15.381,1.539 -13.842,10.005c1.529,8.455 11.533,-0.77 10.764,7.685c-0.77,8.455 2.309,6.916 -1.539,12.303c-3.848,5.387 -4.618,1.539 1.539,9.235l1.929,2.33c4.322,5.102 4.449,4.628 0.38,10.732c-4.618,6.926 -12.314,-2.298 -9.236,9.235c3.079,11.533 1.54,12.303 0,17.69c-1.539,5.377 -10.763,-12.303 -12.302,-2.309c-1.54,9.994 5.387,7.686 5.387,13.842c-0,6.146 -3.079,3.079 -6.157,13.073c-3.078,9.994 -0,16.151 -19.988,20.757c-19.999,4.618 -23.847,6.927 -36.919,15.382c-13.073,8.465 -20.758,7.695 -19.988,-0c0.759,-7.686 3.067,-0.759 1.539,-13.062c-1.539,-12.314 6.916,-18.46 -2.309,-18.46c-8.94,0 -1.349,1.423 -12.029,-2.678l-1.043,-0.4c-12.314,-4.618 -6.157,-8.466 -16.921,-3.848c-10.764,4.617 -18.459,17.69 -17.69,4.617c0.77,-13.072 8.466,-11.533 0.77,-13.072c-7.686,-1.539 -3.848,-7.696 -7.686,-1.539c-3.848,6.156 -11.543,9.224 -13.082,3.848c-1.54,-5.387 5.386,-0.77 -1.54,-5.387c-6.915,-4.618 -6.915,-14.612 -10.763,-5.387c-3.838,9.235 -4.607,16.92 -13.073,17.69c-8.455,0.769 -9.224,1.539 -19.219,0.769c-10.004,-0.769 -10.763,-3.848 -13.842,2.309c-3.078,6.157 0,13.072 -7.695,10.763c-7.686,-2.308 -0,-3.067 -2.309,-12.302c-2.298,-9.225 3.848,-13.073 0.78,-17.69c-3.078,-4.607 -0.78,-2.298 -11.544,-3.838c-10.764,-1.539 -4.617,-3.848 -10.764,-1.539c-6.156,2.298 -6.915,7.685 -18.459,5.377c-5.103,-1.012 -10.047,-0.38 -14.116,0.105Zm-129.681,-20.863c2.298,2.309 2.298,6.146 -2.309,13.842c-4.617,7.685 3.068,11.533 -1.539,13.072c-4.617,1.54 -4.617,6.147 -9.235,4.607c-4.617,-1.528 -6.916,-3.067 -10.764,-5.376c-3.847,-2.309 -7.695,4.617 -9.224,3.078c-1.539,-1.539 0.769,-6.926 -0.77,-14.611c-1.539,-7.696 2.299,-7.696 2.299,-12.303c-0,-4.618 -0,-6.157 7.695,-10.005c7.686,-3.848 11.534,3.848 11.534,3.848c3.848,-3.848 10.004,1.539 12.313,3.848Zm399.88,56.138c1.539,-6.927 6.157,-29.993 11.533,-22.308c0,0 -1.539,1.539 -0.77,10.005c0.77,8.455 -5.376,6.146 -2.308,15.37c3.078,9.236 4.617,20.769 -2.298,14.623c-6.927,-6.157 -7.696,-10.774 -6.157,-17.69Z" style="fill:#fff;"/><defs><linearGradient id="_Linear1" x1="0" y1="0" x2="1" y2="0" gradientUnits="userSpaceOnUse" gradientTransform="matrix(68.2368,69.102,-69.102,68.2368,814.711,1092.2)"><stop offset="0" style="stop-color:#f00;stop-opacity:1"/><stop offset="1" style="stop-color:#005596;stop-opacity:1"/></linearGradient><linearGradient id="_Linear2" x1="0" y1="0" x2="1" y2="0" gradientUnits="userSpaceOnUse" gradientTransform="matrix(69.102,0,0,69.102,814.711,1126.75)"><stop offset="0" style="stop-color:#fab20b;stop-opacity:1"/><stop offset="1" style="stop-color:#68b92e;stop-opacity:1"/></linearGradient><linearGradient id="_Linear3" x1="0" y1="0" x2="1" y2="0" gradientUnits="userSpaceOnUse" gradientTransform="matrix(69.102,0,0,69.102,743.876,1197.45)"><stop offset="0" style="stop-color:#fab20b;stop-opacity:1"/><stop offset="1" style="stop-color:#68b92e;stop-opacity:1"/></linearGradient><linearGradient id="_Linear4" x1="0" y1="0" x2="1" y2="0" gradientUnits="userSpaceOnUse" gradientTransform="matrix(69.102,0,0,-69.102,743.597,1128.85)"><stop offset="0" style="stop-color:#fab20b;stop-opacity:1"/><stop offset="1" style="stop-color:#68b92e;stop-opacity:1"/></linearGradient><linearGradient id="_Linear5" x1="0" y1="0" x2="1" y2="0" gradientUnits="userSpaceOnUse" gradientTransform="matrix(69.102,0,0,-69.102,814.711,1197.95)"><stop offset="0" style="stop-color:#fab20b;stop-opacity:1"/><stop offset="1" style="stop-color:#68b92e;stop-opacity:1"/></linearGradient></defs></svg>