<?xml version="1.0" encoding="UTF-8" standalone="no"?><!DOCTYPE svg PUBLIC "-//W3C//DTD SVG 1.1//EN" "http://www.w3.org/Graphics/SVG/1.1/DTD/svg11.dtd"><svg width="100%" height="100%" viewBox="0 0 1630 1630" version="1.1" xmlns="http://www.w3.org/2000/svg" xmlns:xlink="http://www.w3.org/1999/xlink" xml:space="preserve" xmlns:serif="http://www.serif.com/" style="fill-rule:evenodd;clip-rule:evenodd;stroke-miterlimit:1.5;"><rect id="Artboard1" x="0" y="0" width="1629.42" height="1629.39" style="fill:none;"/><g><g><path d="M814.711,1092.2l69.102,69.102" style="fill:url(#_Linear1);stroke:url(#_Linear2);stroke-width:20.66px;"/><path d="M743.876,1162.9l69.102,69.102" style="fill:none;stroke:url(#_Linear3);stroke-width:20.66px;"/><path d="M743.597,1163.4l69.102,-69.102" style="fill:none;stroke:url(#_Linear4);stroke-width:20.66px;"/><path d="M814.711,1232.5l69.102,-69.102" style="fill:none;stroke:url(#_Linear5);stroke-width:20.66px;"/></g><path d="M814.711,1104.47c0,-0 84.842,-87.58 192.372,-198.579c74.834,-77.249 96.199,-191.769 54.254,-290.804c-41.946,-99.035 -139.065,-163.372 -246.617,-163.372c-0.006,-0 -0.012,-0 -0.018,-0c-107.552,-0 -204.671,64.337 -246.617,163.372c-41.945,99.035 -20.58,213.555 54.254,290.804c107.53,110.999 192.372,198.579 192.372,198.579Z" style="fill:#fab20b;"/><clipPath id="_clip6"><path d="M814.711,1104.47c0,-0 84.842,-87.58 192.372,-198.579c74.834,-77.249 96.199,-191.769 54.254,-290.804c-41.946,-99.035 -139.065,-163.372 -246.617,-163.372c-0.006,-0 -0.012,-0 -0.018,-0c-107.552,-0 -204.671,64.337 -246.617,163.372c-41.945,99.035 -20.58,213.555 54.254,290.804c107.53,110.999 192.372,198.579 192.372,198.579Z"/></clipPath><g clip-path="url(#_clip6)"><path d="M736.882,748.623c0.218,-1.058 0.267,-2.116 0,-3.154c-2.155,-8.659 -7.206,0 -12.257,-2.886c-5.042,-2.886 -8.65,1.443 -17.299,-3.608c-8.66,-5.052 -0,-0 -2.887,-5.052c-2.886,-5.041 -2.165,-5.041 -12.258,-7.206c-10.092,-2.165 -1.443,-5.773 0,-16.587c1.444,-10.815 6.485,-9.371 5.052,-18.743c-1.444,-9.38 -3.608,4.33 -8.66,8.65c-5.041,4.33 -1.443,6.495 -4.329,12.979c-2.877,6.495 -5.042,1.444 -6.485,7.928c-1.443,6.495 5.051,7.938 0.722,11.546c-4.33,3.608 -2.887,10.815 -7.217,17.299c-4.32,6.495 -7.928,3.608 -17.299,2.165c-9.371,-1.433 -7.216,-7.206 -9.371,-15.144c-2.165,-7.928 -0.731,-6.485 7.928,-10.093c8.65,-3.598 1.443,-5.773 -2.165,-14.422c-3.608,-8.65 -7.206,0.721 -9.371,-7.207c-2.165,-7.937 -7.216,-5.051 -15.144,-10.102c-7.938,-5.042 -10.093,-5.042 -15.144,-7.207c-5.041,-2.164 0.721,-6.484 8.649,-9.371c7.938,-2.886 7.938,3.599 18.031,7.928c10.103,4.33 7.216,0 12.979,-2.886c5.773,-2.877 7.928,-11.536 12.258,-15.134c4.329,-3.608 10.093,-0 16.587,2.154c6.485,2.166 6.485,5.052 11.536,3.609c5.051,-1.443 0.722,-12.258 7.216,-19.474c6.485,-7.206 -2.886,-4.32 -10.092,-4.32c-7.216,-0 -21.639,9.371 -32.453,5.051c-10.815,-4.329 -10.815,0 -19.474,2.155c-8.65,2.165 -10.093,1.443 -16.588,-7.206c-6.484,-8.66 -7.206,-7.928 -10.814,-22.35c-3.608,-14.423 -7.928,-7.217 -18.742,-12.258c-10.825,-5.051 -15.866,1.433 -24.516,0.721c-8.659,-0.721 -6.494,-4.329 3.599,-13.7c10.092,-9.381 5.772,-11.536 12.257,-18.753c6.495,-7.206 11.546,-5.051 20.917,-8.649c9.371,-3.608 10.093,-11.536 19.464,-18.031c9.372,-6.484 29.567,2.165 33.897,2.887c4.319,0.722 15.855,12.258 23.793,16.587c7.928,4.32 14.423,4.32 26.68,2.155c12.258,-2.155 0.722,12.268 5.052,21.639c4.319,9.371 3.598,8.649 -0.722,16.577c-4.33,7.938 0.148,27.797 -0.722,33.897c-0.721,5.041 7.207,15.865 14.423,38.937c7.206,23.072 1.443,-3.608 2.155,-12.257c0.722,-8.66 1.443,-10.815 5.773,-16.588c4.33,-5.763 0.721,5.042 5.041,15.866c3.411,8.521 1.463,10.785 2.59,15.589c0.307,1.295 0.821,2.758 1.74,4.597c4.33,8.659 -0,-0 3.608,8.659c3.598,8.65 10.093,7.928 25.958,7.928c15.866,0 9.372,-6.485 17.309,-18.752c7.928,-12.248 10.815,-9.371 17.3,-18.021c6.494,-8.649 7.937,-10.093 10.814,-20.185c2.887,-10.103 7.216,2.154 18.752,2.154c11.536,0 8.65,-5.772 18.031,-10.092c9.371,-4.33 5.041,-5.773 2.155,-8.66c-2.877,-2.876 -2.155,-5.041 7.216,-8.649c9.371,-3.598 10.814,-10.093 15.144,-12.979c4.33,-2.877 7.206,-2.156 18.021,-0.712c10.824,1.433 16.587,6.484 27.402,12.979c10.824,6.485 12.267,10.804 18.752,11.536c6.494,0.712 10.092,5.763 35.329,18.021c25.237,12.258 12.258,-2.165 23.072,5.051c10.825,7.207 15.144,2.155 23.072,2.155c7.938,0 -2.155,5.052 1.444,9.381c3.608,4.33 12.979,-2.165 12.979,-2.165c-0,0 -0.712,185.318 -0,193.977c0.731,8.65 -5.042,4.32 -6.485,10.093c-1.443,5.763 -5.051,10.093 -1.443,16.577c3.608,6.495 5.773,6.495 5.773,6.495l-0,118.256c-4.33,-1.443 -10.824,-8.659 -21.639,-23.793c-10.814,-15.144 -10.093,-7.216 -17.299,-16.588c-7.216,-9.371 -10.814,-4.329 -15.144,-10.092c-4.33,-5.773 -8.65,-4.33 -15.144,-2.165c-6.485,2.165 -12.258,4.329 -27.402,-1.443c-15.144,-5.773 4.33,-7.938 7.938,-20.917c3.598,-12.98 -2.165,-6.485 -12.268,-19.465c-10.092,-12.979 0.732,-6.494 -7.206,-15.143c-7.928,-8.65 0,-6.485 -5.773,-23.794c-5.763,-17.309 -5.041,-11.536 -4.32,-23.072c0.722,-11.536 -7.216,-12.979 -16.587,-24.515c-9.371,-11.546 -7.206,-11.546 -27.402,-27.402c-20.185,-15.866 -32.453,-15.866 -46.144,-18.031c-13.701,-2.165 -21.638,-10.814 -27.402,-14.422c-5.772,-3.608 -8.659,-4.32 -43.988,-10.093c-31.08,-5.071 -20.324,-12.93 -18.753,-20.64Zm186.04,176.391c12.267,-0 10.824,8.649 15.143,15.866c4.33,7.206 -6.484,14.422 -10.814,19.464c-4.329,5.051 -3.608,7.216 -10.093,13.701c-6.494,6.494 -15.865,3.608 -28.123,4.329c-12.258,0.722 -13.701,7.207 -9.381,-5.051c4.33,-12.258 1.443,-8.65 5.773,-20.186c4.33,-11.536 7.938,-10.092 11.536,-17.308c3.608,-7.207 18.199,-10.815 25.959,-10.815Zm-147.814,-302.852c0,-0 2.877,5.773 10.093,2.164c7.206,-3.608 12.979,2.877 20.907,1.444c7.938,-1.444 4.33,2.876 17.309,2.165c12.979,-0.732 21.629,2.886 12.979,5.041c-8.659,2.165 -17.308,3.608 -25.236,2.887c-7.938,-0.722 -10.815,-0.722 -15.866,-2.887c-5.051,-2.155 -5.051,-2.886 -10.093,-2.155c-5.051,0.712 -16.587,-5.773 -10.093,-8.659Zm-7.216,-50.474c-1.443,-2.886 12.258,-0.722 15.866,0.722c3.598,1.443 2.165,7.216 -0.722,13.7c-2.886,6.495 0,0 -5.051,-4.329c-5.041,-4.33 -10.093,-10.093 -10.093,-10.093Zm24.515,2.165c7.216,-1.443 10.815,10.092 13.701,18.02c2.887,7.938 12.98,3.608 6.495,8.66c-6.495,5.051 -5.052,-2.165 -13.701,-2.165c-8.659,0 -5.773,0.722 -7.216,-7.938c-1.443,-8.649 0.721,-16.577 0.721,-16.577Zm-227.863,-20.196c0,0 -4.32,-5.763 -11.536,-8.649c-7.206,-2.887 -9.371,-10.815 0.721,-8.65c10.103,2.155 19.474,0 20.917,6.485c1.444,6.494 0,18.031 -10.102,10.814Z" style="fill:#fff;"/></g><path d="M814.711,1159.3c0,-0 99.094,-102.291 224.687,-231.937c87.405,-90.225 112.359,-223.983 63.367,-339.655c-48.992,-115.672 -162.426,-190.817 -288.045,-190.817c-0.006,0 -0.012,0 -0.017,0c-125.62,0 -239.054,75.145 -288.046,190.817c-48.992,115.672 -24.038,249.43 63.367,339.655c125.594,129.646 224.687,231.937 224.687,231.937Z" style="fill:none;stroke:#fab20b;stroke-width:20.66px;stroke-linecap:square;"/></g><defs><linearGradient id="_Linear1" x1="0" y1="0" x2="1" y2="0" gradientUnits="userSpaceOnUse" gradientTransform="matrix(68.2368,69.102,-69.102,68.2368,814.711,1092.2)"><stop offset="0" style="stop-color:#f00;stop-opacity:1"/><stop offset="1" style="stop-color:#005596;stop-opacity:1"/></linearGradient><linearGradient id="_Linear2" x1="0" y1="0" x2="1" y2="0" gradientUnits="userSpaceOnUse" gradientTransform="matrix(69.102,0,0,69.102,814.711,1126.75)"><stop offset="0" style="stop-color:#fab20b;stop-opacity:1"/><stop offset="1" style="stop-color:#68b92e;stop-opacity:1"/></linearGradient><linearGradient id="_Linear3" x1="0" y1="0" x2="1" y2="0" gradientUnits="userSpaceOnUse" gradientTransform="matrix(69.102,0,0,69.102,743.876,1197.45)"><stop offset="0" style="stop-color:#fab20b;stop-opacity:1"/><stop offset="1" style="stop-color:#68b92e;stop-opacity:1"/></linearGradient><linearGradient id="_Linear4" x1="0" y1="0" x2="1" y2="0" gradientUnits="userSpaceOnUse" gradientTransform="matrix(69.102,0,0,-69.102,743.597,1128.85)"><stop offset="0" style="stop-color:#fab20b;stop-opacity:1"/><stop offset="1" style="stop-color:#68b92e;stop-opacity:1"/></linearGradient><linearGradient id="_Linear5" x1="0" y1="0" x2="1" y2="0" gradientUnits="userSpaceOnUse" gradientTransform="matrix(69.102,0,0,-69.102,814.711,1197.95)"><stop offset="0" style="stop-color:#fab20b;stop-opacity:1"/><stop offset="1" style="stop-color:#68b92e;stop-opacity:1"/></linearGradient></defs></svg>