<?xml version="1.0" encoding="UTF-8" standalone="no"?><!DOCTYPE svg PUBLIC "-//W3C//DTD SVG 1.1//EN" "http://www.w3.org/Graphics/SVG/1.1/DTD/svg11.dtd"><svg width="100%" height="100%" viewBox="0 0 1630 1630" version="1.1" xmlns="http://www.w3.org/2000/svg" xmlns:xlink="http://www.w3.org/1999/xlink" xml:space="preserve" xmlns:serif="http://www.serif.com/" style="fill-rule:evenodd;clip-rule:evenodd;stroke-miterlimit:1.5;"><rect id="Artboard1" x="0" y="0" width="1629.42" height="1629.39" style="fill:none;"/><g><g><path d="M814.711,1092.2l69.102,69.102" style="fill:url(#_Linear1);stroke:url(#_Linear2);stroke-width:20.66px;"/><path d="M743.876,1162.9l69.102,69.102" style="fill:none;stroke:url(#_Linear3);stroke-width:20.66px;"/><path d="M743.597,1163.4l69.102,-69.102" style="fill:none;stroke:url(#_Linear4);stroke-width:20.66px;"/><path d="M814.711,1232.5l69.102,-69.102" style="fill:none;stroke:url(#_Linear5);stroke-width:20.66px;"/></g><path d="M814.711,1104.47c0,-0 84.842,-87.58 192.372,-198.579c74.834,-77.249 96.199,-191.769 54.254,-290.804c-41.946,-99.035 -139.065,-163.372 -246.617,-163.372c-0.006,-0 -0.012,-0 -0.018,-0c-107.552,-0 -204.671,64.337 -246.617,163.372c-41.945,99.035 -20.58,213.555 54.254,290.804c107.53,110.999 192.372,198.579 192.372,198.579Z" style="fill:#005596;"/><clipPath id="_clip6"><path d="M814.711,1104.47c0,-0 84.842,-87.58 192.372,-198.579c74.834,-77.249 96.199,-191.769 54.254,-290.804c-41.946,-99.035 -139.065,-163.372 -246.617,-163.372c-0.006,-0 -0.012,-0 -0.018,-0c-107.552,-0 -204.671,64.337 -246.617,163.372c-41.945,99.035 -20.58,213.555 54.254,290.804c107.53,110.999 192.372,198.579 192.372,198.579Z"/></clipPath><g clip-path="url(#_clip6)"><path d="M967.861,912.612c18.06,12.401 20.302,25.946 21.446,38.346c1.113,12.401 9.015,22.56 -1.144,19.174c-10.144,-3.386 -32.703,-14.658 -48.49,-21.431c-15.787,-6.757 -13.529,-5.644 -15.787,-16.916c-2.257,-11.287 -5.644,-7.901 -16.931,-3.386c-11.272,4.515 -10.143,-6.757 -10.143,-1.128c0,5.643 -4.515,11.287 -6.773,14.673c-2.242,3.371 -7.901,-1.144 -16.915,-9.03c-9.03,-7.901 -18.045,1.129 -24.802,-13.529c-6.772,-14.674 0,-0 -4.515,5.628c-4.514,5.644 -6.772,1.129 -11.287,10.159c-4.499,9.03 -13.53,1.128 -27.059,2.257c-13.545,1.129 -0,-0 -3.386,-12.416c-3.386,-12.401 -6.772,-5.628 -13.545,-11.272c-6.757,-5.644 -15.787,32.703 -21.431,31.574c-5.628,-1.113 5.644,-11.272 7.902,-31.574c2.257,-20.302 -0,0 6.772,-11.287c6.757,-11.272 7.886,-6.757 22.544,-12.401c14.673,-5.644 33.847,3.386 47.376,-4.515c13.545,-7.886 5.644,3.386 7.901,14.658c2.258,11.288 13.53,-2.242 25.946,-13.529c12.401,-11.272 15.787,-1.129 29.316,10.159c13.545,11.271 16.916,7.885 32.703,5.628c15.802,-2.258 20.302,10.158 20.302,10.158Zm-249.251,16.916c10.143,1.129 2.257,14.674 -5.644,24.817c-7.901,10.158 -11.272,6.757 -25.945,9.014c-14.658,2.258 -13.53,4.515 -32.703,-5.628c-19.173,-10.159 -10.159,-5.644 -12.416,-13.529c-2.258,-7.902 -11.272,-11.288 -11.272,-25.946c-0,-14.674 16.916,-7.901 37.217,-11.288c20.302,-3.386 14.658,-3.386 25.946,1.129c11.272,4.515 18.044,2.258 19.173,13.545c1.129,11.272 5.644,7.886 5.644,7.886Zm85.707,-212.034c10.159,23.673 -20.302,0 -29.316,-16.931c-9.03,-16.915 -5.644,-13.529 -16.916,-31.574c-11.287,-18.044 -5.644,-16.915 -3.386,-32.702c2.257,-15.802 -5.644,-13.545 -9.03,-38.362c-3.371,-24.801 -4.5,-11.272 -12.401,-32.702c-7.901,-21.431 0,-10.144 1.129,-28.204c1.129,-18.044 2.257,-20.301 11.272,-33.831c9.03,-13.529 27.074,-33.831 30.46,-33.831c3.387,-0 2.258,9.014 -10.158,22.544c-12.401,13.545 -5.629,10.158 4.514,14.673c10.159,4.5 4.516,7.886 5.644,25.946c1.129,18.044 -2.257,10.143 -12.416,27.059c-10.143,16.916 -12.401,11.287 -10.143,22.559c2.257,11.288 6.772,4.515 24.817,-11.272c18.044,-15.787 7.885,-5.643 9.03,-15.787c1.113,-10.158 -5.644,-10.158 6.757,-22.559c12.401,-12.416 40.604,-19.189 37.217,-11.288c-3.37,7.886 2.258,16.916 2.258,24.818c-0,7.885 -9.03,15.786 -19.173,28.187c-10.159,12.416 -16.916,7.901 -6.757,24.817c10.143,16.931 20.302,13.545 29.316,20.302c9.03,6.772 3.386,10.158 -9.014,11.287c-12.417,1.129 -16.932,-10.158 -30.461,-11.287c-13.545,-1.129 -11.288,-10.143 -24.817,-5.629c-13.53,4.5 -2.258,14.659 -2.258,24.802c0,10.159 -1.128,16.915 3.387,31.589c4.515,14.658 9.03,15.787 14.658,28.188c5.644,12.416 15.787,19.188 15.787,19.188Zm197.391,11.272c2.257,11.288 -3.386,32.703 -15.787,33.847c-12.416,1.114 -7.902,-11.287 -11.288,-22.559c-3.386,-11.288 27.075,-11.288 27.075,-11.288Zm-57.52,65.406c18.045,1.144 11.272,22.559 -3.386,25.961c-14.658,3.371 -11.288,1.113 -23.688,-4.515c-12.416,-5.644 -3.386,-10.159 11.287,-13.545c14.658,-3.386 15.787,-7.901 15.787,-7.901Zm-219.934,-111.653c-0,-0 3.37,4.515 12.4,1.129c9.015,-3.387 19.173,-13.53 14.658,-0c-4.514,13.545 -13.529,18.044 -4.514,21.431c9.029,3.386 12.415,-3.387 18.059,9.029c5.628,12.401 -2.257,16.916 -14.673,9.015c-12.401,-7.886 -14.658,-4.515 -18.045,-16.916c-3.386,-12.401 -20.302,-27.074 -7.885,-23.688Zm30.445,71.064c-0,0 -5.644,12.401 7.901,15.787c13.529,3.386 18.044,5.644 22.559,11.272c4.5,5.644 11.272,16.931 -3.386,13.53c-14.674,-3.371 -16.916,4.515 -30.461,2.257c-13.529,-2.257 -25.945,-3.37 -21.43,-14.658c4.515,-11.272 7.901,-6.757 13.529,-14.658c5.644,-7.902 -2.242,-23.688 11.288,-13.53Zm-169.188,51.876c-6.773,-11.287 0,-11.287 0,-11.287c0,-0 11.272,7.901 25.945,2.257c14.659,-5.628 12.401,0 22.56,2.258c10.143,2.257 20.302,2.257 13.53,10.158c-6.758,7.886 -9.015,2.258 -19.173,-1.128c-10.144,-3.387 -10.144,-0 -28.188,3.386c-18.06,3.37 -14.674,-5.644 -14.674,-5.644Zm-27.074,-7.886c13.545,0 16.931,4.5 13.545,11.272c-3.387,6.773 -10.159,2.258 -23.689,3.387c-13.529,1.128 -23.687,2.241 -39.475,1.128c-15.802,-1.128 1.129,-6.772 -4.515,-19.188c-5.628,-12.401 7.902,-3.371 20.303,-7.886c12.415,-4.515 10.158,5.644 20.301,4.515c10.159,-1.129 13.53,6.772 13.53,6.772Z" style="fill:#fff;"/></g><path d="M814.711,1159.3c0,-0 99.094,-102.291 224.687,-231.937c87.405,-90.225 112.359,-223.983 63.367,-339.655c-48.992,-115.672 -162.426,-190.817 -288.045,-190.817c-0.006,0 -0.012,0 -0.017,0c-125.62,0 -239.054,75.145 -288.046,190.817c-48.992,115.672 -24.038,249.43 63.367,339.655c125.594,129.646 224.687,231.937 224.687,231.937Z" style="fill:none;stroke:#005596;stroke-width:20.66px;stroke-linecap:square;"/></g><defs><linearGradient id="_Linear1" x1="0" y1="0" x2="1" y2="0" gradientUnits="userSpaceOnUse" gradientTransform="matrix(68.2368,69.102,-69.102,68.2368,814.711,1092.2)"><stop offset="0" style="stop-color:#f00;stop-opacity:1"/><stop offset="1" style="stop-color:#005596;stop-opacity:1"/></linearGradient><linearGradient id="_Linear2" x1="0" y1="0" x2="1" y2="0" gradientUnits="userSpaceOnUse" gradientTransform="matrix(69.102,0,0,69.102,814.711,1126.75)"><stop offset="0" style="stop-color:#fab20b;stop-opacity:1"/><stop offset="1" style="stop-color:#005596;stop-opacity:1"/></linearGradient><linearGradient id="_Linear3" x1="0" y1="0" x2="1" y2="0" gradientUnits="userSpaceOnUse" gradientTransform="matrix(69.102,0,0,69.102,743.876,1197.45)"><stop offset="0" style="stop-color:#fab20b;stop-opacity:1"/><stop offset="1" style="stop-color:#005596;stop-opacity:1"/></linearGradient><linearGradient id="_Linear4" x1="0" y1="0" x2="1" y2="0" gradientUnits="userSpaceOnUse" gradientTransform="matrix(69.102,0,0,-69.102,743.597,1128.85)"><stop offset="0" style="stop-color:#fab20b;stop-opacity:1"/><stop offset="1" style="stop-color:#005596;stop-opacity:1"/></linearGradient><linearGradient id="_Linear5" x1="0" y1="0" x2="1" y2="0" gradientUnits="userSpaceOnUse" gradientTransform="matrix(69.102,0,0,-69.102,814.711,1197.95)"><stop offset="0" style="stop-color:#fab20b;stop-opacity:1"/><stop offset="1" style="stop-color:#005596;stop-opacity:1"/></linearGradient></defs></svg>