<?xml version="1.0" encoding="UTF-8" standalone="no"?><!DOCTYPE svg PUBLIC "-//W3C//DTD SVG 1.1//EN" "http://www.w3.org/Graphics/SVG/1.1/DTD/svg11.dtd"><svg width="100%" height="100%" viewBox="0 0 1630 1630" version="1.1" xmlns="http://www.w3.org/2000/svg" xmlns:xlink="http://www.w3.org/1999/xlink" xml:space="preserve" xmlns:serif="http://www.serif.com/" style="fill-rule:evenodd;clip-rule:evenodd;stroke-miterlimit:1.5;"><rect id="Artboard1" x="0" y="0" width="1629.42" height="1629.39" style="fill:none;"/><g><g><path d="M814.711,1092.2l69.102,69.102" style="fill:url(#_Linear1);stroke:url(#_Linear2);stroke-width:20.66px;"/><path d="M743.876,1162.9l69.102,69.102" style="fill:none;stroke:url(#_Linear3);stroke-width:20.66px;"/><path d="M743.597,1163.4l69.102,-69.102" style="fill:none;stroke:url(#_Linear4);stroke-width:20.66px;"/><path d="M814.711,1232.5l69.102,-69.102" style="fill:none;stroke:url(#_Linear5);stroke-width:20.66px;"/></g><path d="M814.711,1104.47c0,-0 84.842,-87.58 192.372,-198.579c74.834,-77.249 96.199,-191.769 54.254,-290.804c-41.946,-99.035 -139.065,-163.372 -246.617,-163.372l-0.018,-0c-107.552,-0 -204.671,64.337 -246.617,163.372c-41.945,99.035 -20.58,213.555 54.254,290.804c107.53,110.999 192.372,198.579 192.372,198.579Z" style="fill:#db261e;"/><clipPath id="_clip6"><path d="M814.711,1104.47c0,-0 84.842,-87.58 192.372,-198.579c74.834,-77.249 96.199,-191.769 54.254,-290.804c-41.946,-99.035 -139.065,-163.372 -246.617,-163.372l-0.018,-0c-107.552,-0 -204.671,64.337 -246.617,163.372c-41.945,99.035 -20.58,213.555 54.254,290.804c107.53,110.999 192.372,198.579 192.372,198.579Z"/></clipPath><g clip-path="url(#_clip6)"><path d="M931.604,977.241c-2.721,-1.933 -8.798,-4.762 -13.653,2.149c-7.87,11.288 -13.529,11.288 -6.757,22.56c6.757,11.287 27.074,-0 19.189,12.416c-7.901,12.4 -12.432,5.628 -18.06,18.044c-5.644,12.401 3.371,21.431 -9.03,20.302c-12.401,-1.129 -27.059,1.129 -18.029,-11.272c9.014,-12.416 13.529,-12.416 13.529,-25.946c0,-13.544 -1.128,-21.43 3.371,-34.975c4.515,-13.529 7.917,-32.702 16.916,-33.831c-0,-0 12.401,6.772 12.401,14.658c-0,7.901 -5.613,10.158 -0,15.787l0.123,0.108Zm0,-0c1.67,1.191 2.041,2.026 0,-0Zm-279.82,-110.632c-12.416,2.257 -14.658,11.272 -23.688,7.901c-9.03,-3.402 -16.915,2.242 -18.044,-10.159c-1.129,-12.4 -7.901,-32.702 -4.515,-38.346c3.386,-5.644 -18.045,-10.159 -4.515,-19.173c13.545,-9.03 21.431,-7.901 28.203,-25.945c6.757,-18.045 12.401,-15.803 14.658,-33.848c2.258,-18.044 1.129,-27.059 1.129,-27.059c-0,0 -1.129,-23.687 4.515,-37.217c2.876,-6.927 3.711,-8.535 4.87,-10.576c1.129,-1.948 2.552,-4.267 6.402,-11.983c7.901,-15.787 6.772,-30.445 12.416,-19.173c5.628,11.272 4.515,24.817 7.886,20.301c3.386,-4.515 7.901,-12.416 1.128,-27.074c-6.757,-14.658 3.387,-30.445 -5.643,-36.089c-9.015,-5.643 -9.015,-5.643 2.257,-16.915c11.288,-11.288 10.159,-16.916 13.545,-29.332c3.386,-12.401 10.143,-23.689 18.045,-33.831c7.901,-10.159 10.158,11.271 23.688,-2.258c13.529,-13.545 3.386,-13.545 14.658,-22.559c11.272,-9.031 -1.129,-11.288 13.529,-15.787c14.674,-4.515 19.189,10.143 28.203,4.499c9.03,-5.628 14.659,-15.787 14.659,-4.499c-0,11.272 -5.629,19.173 12.416,19.173c18.044,-0 15.787,-5.644 29.332,-1.129c6.432,2.149 10.313,0.974 13.823,0.247c3.881,-0.788 7.298,-1.067 13.22,4.268c11.303,10.143 30.461,20.302 41.733,12.401c2.752,-1.902 4.391,-3.355 5.659,-4.407c3.927,-3.278 3.772,-2.66 19.173,-0.108c20.302,3.386 24.817,11.287 37.218,4.515c12.4,-6.757 15.787,-9.015 24.816,-9.015c9.015,0 13.53,-9.03 22.544,-18.044c9.03,-9.03 -3.371,-19.189 9.03,-20.318c12.416,-1.128 19.173,-4.499 24.817,-16.915c5.644,-12.401 13.529,-11.272 16.916,-5.644c3.386,5.644 9.03,6.772 5.644,15.803c-3.387,9.014 -12.401,4.515 -12.401,16.915c-0,12.401 -9.03,22.559 -19.189,30.461c-10.143,7.885 -21.415,4.499 -22.559,15.787c-1.113,11.272 16.931,15.787 -0,21.43c-16.9,5.629 -16.9,-1.129 -36.089,6.757c-19.173,7.901 -22.56,18.045 -38.346,11.288l-0.418,-0.201c-15.431,-6.835 -20.023,-20.086 -33.429,-17.844c-13.53,2.242 -13.53,-7.901 -34.945,0c-21.43,7.886 -21.43,-5.643 -38.362,1.129c-16.915,6.757 -16.915,-4.515 -28.187,-2.258c-11.272,2.258 -5.644,18.045 -19.174,10.144c-3.71,-2.165 -6.88,-3.696 -9.833,-4.84c-7.809,-3.015 -13.87,-3.046 -22.885,-3.046c-12.4,-0 -22.543,-7.901 -30.445,-9.03c-7.901,-1.129 -4.515,2.258 -12.4,7.901c-7.902,5.629 -5.659,-2.257 -13.545,14.658c-7.901,16.916 -11.272,23.689 -13.53,39.475c-2.257,15.787 2.258,12.401 1.114,30.461c-1.114,18.044 2.257,20.302 12.416,27.059c10.143,6.772 19.173,1.129 22.559,13.545c3.386,12.401 6.773,13.529 13.53,24.817c6.772,11.272 13.544,5.628 23.688,5.628c10.158,0 21.43,-10.143 24.817,-16.916c3.386,-6.772 4.514,-11.272 12.416,-19.173c7.886,-7.901 6.757,-6.772 21.415,-2.257c14.673,4.515 23.688,4.515 29.332,-4.515c5.644,-9.03 4.515,-13.53 19.173,-9.03c14.658,4.515 21.431,4.515 24.817,1.144c3.371,-3.386 -4.515,-2.258 3.371,-9.03c7.901,-6.773 3.401,-16.915 20.317,-10.159c16.916,6.773 27.059,7.902 27.059,18.045c-0,10.158 -11.272,11.287 -6.757,18.06c4.499,6.757 -14.658,5.643 -19.173,-3.387c-4.515,-9.029 -5.644,-11.272 -15.787,-3.386c-10.159,7.902 -3.402,4.515 -15.803,19.173c-12.4,14.659 -18.044,14.659 -22.574,24.817c-4.5,10.143 -10.128,7.902 -23.673,14.658c-13.529,6.773 -10.143,7.886 -21.415,14.658c-11.288,6.773 -14.674,0 -22.56,-1.113c-7.901,-1.144 -21.446,-4.515 -14.673,6.757c6.772,11.288 13.529,24.817 19.173,29.332c5.644,4.515 14.658,-4.515 24.817,12.401c10.143,16.916 3.386,12.416 13.545,24.817c10.143,12.4 13.514,14.658 18.044,20.301c4.499,5.644 10.143,3.387 3.371,15.788l-1.052,2.536c-2.504,8.859 15.107,3.633 7.824,9.88c-7.901,6.757 -14.673,3.371 -16.915,13.529c-2.258,10.143 -9.03,14.658 6.772,23.688c15.787,9.015 12.401,13.53 20.302,21.431c7.886,7.886 22.559,10.143 20.286,19.173c-2.257,9.014 -11.272,0 -16.915,7.901c-5.629,7.886 -16.931,7.886 -29.332,21.416c-12.385,13.545 2.273,21.43 -6.757,25.945c-9.03,4.515 -15.787,-7.901 -24.817,-6.757c-9.015,1.113 -20.302,-2.257 -18.045,-11.287c2.258,-9.015 3.387,-11.272 4.516,-25.946c1.128,-14.658 2.257,-18.045 -4.516,-24.817c-6.772,-6.757 -9.029,-4.515 -19.173,-13.529c-10.158,-9.03 -18.044,-14.658 -22.559,-25.946c-4.499,-11.272 -3.386,-11.272 4.515,-24.801c7.886,-13.545 16.916,-18.06 4.515,-33.847c-12.416,-15.787 -25.946,-29.316 -30.461,-23.688c-4.515,5.644 -5.628,6.772 -18.044,16.931c-12.401,10.143 -27.074,3.371 -16.916,20.302c10.143,16.915 10.143,21.415 12.401,36.088c2.257,14.659 3.386,18.045 -2.258,34.961c-5.628,16.915 -15.786,12.416 -9.014,28.203c6.757,15.787 5.644,13.529 6.757,24.817c1.144,11.272 4.515,11.272 -1.113,27.058c-5.644,15.803 -13.545,15.803 -9.03,28.204c4.515,12.4 21.43,21.43 18.044,28.203c-3.386,6.757 -2.257,-2.258 -18.044,-0c-15.787,2.257 -28.203,-7.901 -27.075,2.257c1.129,10.143 0,14.658 0,14.658c0,0 -12.4,-3.386 -21.43,-11.287c-9.015,-7.886 -15.787,-10.143 -11.272,-21.431c4.515,-11.272 7.901,-13.529 9.014,-25.945c1.145,-12.401 -5.628,-13.53 0,-27.059c5.644,-13.545 13.545,-19.173 10.159,-32.703c-3.386,-13.545 -7.901,-27.074 -12.416,-41.748c-4.5,-14.658 7.901,-31.574 -4.5,-29.316Zm69.92,228.965c0,-9.031 10.159,2.257 11.288,7.885c1.129,5.644 1.129,19.173 -4.515,12.416c-5.628,-6.772 -6.773,-11.287 -6.773,-20.301Zm170.317,-109.411c-2.257,12.416 -1.129,15.787 -5.659,27.074c-4.484,11.272 -11.257,13.529 -20.287,13.529c-9.014,0 2.258,-7.885 6.757,-27.074c4.531,-19.173 -3.371,-10.143 0,-21.415c3.402,-11.287 16.932,-12.416 16.932,-12.416c11.287,-3.386 4.514,7.901 2.257,20.302Zm43.99,-64.292c7.901,3.386 -3.402,11.287 -10.143,15.802c-6.788,4.5 -7.917,-4.515 -12.417,-14.674c-4.514,-10.143 2.243,-18.044 2.243,-18.044c7.916,-4.515 12.431,13.53 20.317,16.916Zm-95.866,80.079c0,-0 10.143,3.386 6.773,10.158c-3.402,6.773 -11.288,3.386 -5.644,13.53c5.644,10.159 2.242,24.817 -3.386,13.545c-5.644,-11.288 -4.515,4.499 -5.644,-11.288c-1.129,-15.787 -10.143,-23.688 7.901,-25.945Z" style="fill:#fff;"/></g><path d="M814.711,1159.3c0,-0 99.094,-102.291 224.687,-231.937c87.405,-90.225 112.359,-223.983 63.367,-339.655c-48.992,-115.672 -162.426,-190.817 -288.045,-190.817c-0.006,0 -0.012,0 -0.017,0c-125.62,0 -239.054,75.145 -288.046,190.817c-48.992,115.672 -24.038,249.43 63.367,339.655c125.594,129.646 224.687,231.937 224.687,231.937Z" style="fill:none;stroke:#db261e;stroke-width:20.66px;stroke-linecap:square;"/></g><defs><linearGradient id="_Linear1" x1="0" y1="0" x2="1" y2="0" gradientUnits="userSpaceOnUse" gradientTransform="matrix(68.2368,69.102,-69.102,68.2368,814.711,1092.2)"><stop offset="0" style="stop-color:#f00;stop-opacity:1"/><stop offset="1" style="stop-color:#005596;stop-opacity:1"/></linearGradient><linearGradient id="_Linear2" x1="0" y1="0" x2="1" y2="0" gradientUnits="userSpaceOnUse" gradientTransform="matrix(69.102,0,0,69.102,814.711,1126.75)"><stop offset="0" style="stop-color:#db261e;stop-opacity:1"/><stop offset="0.51" style="stop-color:#a6313b;stop-opacity:1"/><stop offset="1" style="stop-color:#005596;stop-opacity:1"/></linearGradient><linearGradient id="_Linear3" x1="0" y1="0" x2="1" y2="0" gradientUnits="userSpaceOnUse" gradientTransform="matrix(69.102,0,0,69.102,743.876,1197.45)"><stop offset="0" style="stop-color:#db261e;stop-opacity:1"/><stop offset="0.51" style="stop-color:#a6313b;stop-opacity:1"/><stop offset="1" style="stop-color:#005596;stop-opacity:1"/></linearGradient><linearGradient id="_Linear4" x1="0" y1="0" x2="1" y2="0" gradientUnits="userSpaceOnUse" gradientTransform="matrix(69.102,0,0,-69.102,743.597,1128.85)"><stop offset="0" style="stop-color:#db261e;stop-opacity:1"/><stop offset="0.51" style="stop-color:#a6313b;stop-opacity:1"/><stop offset="1" style="stop-color:#005596;stop-opacity:1"/></linearGradient><linearGradient id="_Linear5" x1="0" y1="0" x2="1" y2="0" gradientUnits="userSpaceOnUse" gradientTransform="matrix(69.102,0,0,-69.102,814.711,1197.95)"><stop offset="0" style="stop-color:#db261e;stop-opacity:1"/><stop offset="0.51" style="stop-color:#a6313b;stop-opacity:1"/><stop offset="1" style="stop-color:#005596;stop-opacity:1"/></linearGradient></defs></svg>